<?xml version="1.0" standalone="no"?><!DOCTYPE svg PUBLIC "-//W3C//DTD SVG 1.1//EN" "http://www.w3.org/Graphics/SVG/1.1/DTD/svg11.dtd"><svg t="1688044848608" class="icon" viewBox="0 0 1024 1024" version="1.1" xmlns="http://www.w3.org/2000/svg" p-id="1469" xmlns:xlink="http://www.w3.org/1999/xlink" width="200" height="200"><path d="M512 58.851556c110.819556 0 200.96 90.254222 200.96 201.187555 0 110.904889-90.168889 201.130667-200.96 201.130667-110.819556 0-200.96-90.225778-200.96-201.130667 0-110.933333 90.140444-201.187556 200.96-201.187555m0-57.457778c-142.705778 0-258.389333 115.768889-258.389333 258.645333 0 142.819556 115.712 258.588444 258.389333 258.588445 142.734222 0 258.417778-115.797333 258.417778-258.588445C770.417778 117.191111 654.734222 1.393778 512 1.393778zM1022.435556 990.833778A512.170667 512.170667 0 0 0 512 531.825778 512.199111 512.199111 0 0 0 1.536 990.833778a28.359111 28.359111 0 0 0 8.419556 22.954666c0.426667 0.483556 0.938667 0.739556 1.393777 1.194667a28.216889 28.216889 0 0 0 6.912 4.693333c1.336889 0.654222 2.816 0.910222 4.266667 1.365334 1.536 0.426667 2.901333 1.251556 4.522667 1.422222a27.790222 27.790222 0 0 0 3.072 0.170667l0.056889-0.028445 0.056888 0.028445h963.470223c0.540444 0 0.967111-0.312889 1.479111-0.312889 0.597333-0.028444 1.109333 0.199111 1.706666 0.142222 1.649778-0.170667 2.958222-0.967111 4.494223-1.393778 1.507556-0.483556 2.958222-0.711111 4.323555-1.393778 2.645333-1.194667 4.835556-2.844444 6.940445-4.721777 0.455111-0.426667 0.938667-0.682667 1.365333-1.137778a28.273778 28.273778 0 0 0 8.419556-22.983111zM512 589.283556c223.004444 0 410.197333 159.544889 448.512 375.864888H63.544889A454.542222 454.542222 0 0 1 512 589.283556z" fill="#FF811C" p-id="1470"></path></svg>