<?xml version="1.0" standalone="no"?><!DOCTYPE svg PUBLIC "-//W3C//DTD SVG 1.1//EN" "http://www.w3.org/Graphics/SVG/1.1/DTD/svg11.dtd"><svg t="1688045780489" class="icon" viewBox="0 0 1152 1024" version="1.1" xmlns="http://www.w3.org/2000/svg" p-id="4525" xmlns:xlink="http://www.w3.org/1999/xlink" width="225" height="200"><path d="M352 441.6V243.2l19.2 19.2c12.8 12.8 25.6 19.2 44.8 19.2 19.2 0 32-6.4 44.8-19.2 25.6-25.6 25.6-64 0-89.6L326.4 38.4c-25.6-25.6-64-25.6-89.6 0l-121.6 128c-25.6 25.6-25.6 64 0 89.6 25.6 25.6 64 25.6 89.6 0l19.2-19.2v204.8C96 473.6 0 588.8 0 723.2c0 160 128 288 288 288s288-128 288-288c0-134.4-96-249.6-224-281.6z m-64 441.6c-89.6 0-160-70.4-160-160s70.4-160 160-160S448 633.6 448 723.2s-70.4 160-160 160zM1011.2 710.4h-89.6V595.2v-6.4c128-32 224-140.8 224-281.6 0-160-128-288-288-288s-288 128-288 288c0 134.4 96 249.6 224 281.6V710.4h-102.4c-32 0-64 25.6-64 64s25.6 64 64 64h102.4v115.2c0 38.4 25.6 64 64 64s64-25.6 64-64v-115.2h89.6c38.4 0 64-25.6 64-64s-25.6-64-64-64z m-313.6-396.8c0-89.6 70.4-160 160-160s160 70.4 160 160-70.4 160-160 160c-83.2 0-160-76.8-160-160z" fill="#1E2330" p-id="4526"></path></svg>