<?xml version="1.0" standalone="no"?><!DOCTYPE svg PUBLIC "-//W3C//DTD SVG 1.1//EN" "http://www.w3.org/Graphics/SVG/1.1/DTD/svg11.dtd"><svg t="1688045840016" class="icon" viewBox="0 0 1034 1024" version="1.1" xmlns="http://www.w3.org/2000/svg" p-id="9187" xmlns:xlink="http://www.w3.org/1999/xlink" width="201.953125" height="200"><path d="M0 256m122.88 0l788.48 0q122.88 0 122.88 122.88l0 471.04q0 122.88-122.88 122.88l-788.48 0q-122.88 0-122.88-122.88l0-471.04q0-122.88 122.88-122.88Z" fill="#FAAD14" p-id="9188"></path><path d="M0 235.52m122.88 0l788.48 0q122.88 0 122.88 122.88l0 450.56q0 122.88-122.88 122.88l-788.48 0q-122.88 0-122.88-122.88l0-450.56q0-122.88 122.88-122.88Z" fill="#FFC53D" p-id="9189"></path><path d="M0 235.52m122.88 0l788.48 0q122.88 0 122.88 122.88l0 112.64q0 122.88-122.88 122.88l-788.48 0q-122.88 0-122.88-122.88l0-112.64q0-122.88 122.88-122.88Z" fill="#FAAD14" p-id="9190"></path><path d="M0 235.52m122.88 0l788.48 0q122.88 0 122.88 122.88l0 71.68q0 122.88-122.88 122.88l-788.48 0q-122.88 0-122.88-122.88l0-71.68q0-122.88 122.88-122.88Z" fill="#FFC53D" p-id="9191"></path><path d="M711.68 568.32h107.52v43.52a53.76 53.76 0 0 1-107.52 0V568.32z" fill="#FAAD14" p-id="9192"></path><path d="M765.44 440.32c29.696 0 53.76 24.064 53.76 53.76v81.92a53.76 53.76 0 0 1-107.52 0v-81.92c0-29.696 24.064-53.76 53.76-53.76z" fill="#FFF1B8" p-id="9193"></path><path d="M220.16 568.32h107.52v43.52a53.76 53.76 0 0 1-107.52 0V568.32z" fill="#FAAD14" p-id="9194"></path><path d="M273.92 440.32c29.696 0 53.76 24.064 53.76 53.76v81.92a53.76 53.76 0 0 1-107.52 0v-81.92c0-29.696 24.064-53.76 53.76-53.76z" fill="#FFF1B8" p-id="9195"></path><path d="M337.92 307.2m-56.32 0a56.32 56.32 0 1 0 112.64 0 56.32 56.32 0 1 0-112.64 0Z" fill="#FFF1B8" p-id="9196"></path><path d="M696.32 307.2m-56.32 0a56.32 56.32 0 1 0 112.64 0 56.32 56.32 0 1 0-112.64 0Z" fill="#FFF1B8" p-id="9197"></path><path d="M368.64 307.2v-61.44c0-82.00192 66.47808-148.48 148.48-148.48S665.6 163.75808 665.6 245.76v61.44a30.72 30.72 0 0 0 61.44 0v-61.44c0-115.93728-93.98272-209.92-209.92-209.92S307.2 129.82272 307.2 245.76v61.44a30.72 30.72 0 0 0 61.44 0z" fill="#FAAD14" p-id="9198"></path></svg>